<?xml version="1.0"?>
<svg xmlns="http://www.w3.org/2000/svg" xmlns:xlink="http://www.w3.org/1999/xlink" version="1.1" id="Capa_1" x="0px" y="0px" viewBox="0 0 511.9 511.9" style="enable-background:new 0 0 511.9 511.9;" xml:space="preserve" width="512px" height="512px" class=""><g transform="matrix(0.770043 0 0 0.770043 51.157 47.3068)"><g>
	<g>
		<path d="M384,335.5c-5.9,0-10.7,4.8-10.7,10.7v112.4c0,17.6-14.4,32-32,32H170.6c-17.6,0-32-14.4-32-32V346.2    c0-5.9-4.7-10.7-10.6-10.7c-5.9,0-10.7,4.8-10.7,10.7v112.4c0,29.4,23.9,53.3,53.3,53.3h170.7c29.4,0,53.3-23.9,53.4-53.3V346.2    C394.7,340.3,389.9,335.5,384,335.5z" data-original="#000000" class="" data-old_color="#000000" fill="#FFFFFF"/>
	</g>
</g><g>
	<g>
		<path d="M255.9,85.2c-76.5,0-138.7,62.2-138.7,138.7V251c0,5.9,4.8,10.7,10.7,10.7c5.9,0,10.7-4.8,10.7-10.7v-27.1    c0-64.7,52.6-117.3,117.3-117.3s117.3,52.6,117.3,117.3v27c0,5.9,4.8,10.7,10.7,10.7c5.9,0,10.7-4.7,10.7-10.6v-27.1    C394.6,147.4,332.4,85.2,255.9,85.2z" data-original="#000000" class="" data-old_color="#000000" fill="#FFFFFF"/>
	</g>
</g><g>
	<g>
		<path d="M362.6,234.6H149.3c-29.4,0-53.3,23.9-53.3,53.3v21.4c0,29.4,23.9,53.3,53.3,53.3h213.3c29.4,0,53.3-24,53.3-53.4v-21.3    C415.9,258.5,392,234.6,362.6,234.6z M394.6,309.2c0,17.6-14.4,32-32,32H149.3c-17.6,0-32-14.4-32-32v-21.3c0-17.6,14.4-32,32-32    h213.3c17.6,0,32,14.4,32,32V309.2z" data-original="#000000" class="" data-old_color="#000000" fill="#FFFFFF"/>
	</g>
</g><g>
	<g>
		<path d="M242.5,271c-0.8-2.7-2.8-4.9-5.3-6.2l-54-27c-2.5-1.3-5.4-1.5-8.1-0.6c-27.9,9.3-43,39.6-33.7,67.5    c7.4,22.4,28.3,36.5,50.6,36.5c5.6,0,11.2-0.8,16.8-2.7C236.7,329.2,251.8,298.9,242.5,271z M202.1,318.2    c-16.8,5.6-34.9-3.5-40.5-20.2c-5.1-15.4,2.2-32,16.4-38.9l45.4,22.7C226.4,297.3,217.5,313.1,202.1,318.2z" data-original="#000000" class="" data-old_color="#000000" fill="#FFFFFF"/>
	</g>
</g><g>
	<g>
		<path d="M336.8,237.2c-2.6-0.9-5.6-0.7-8.1,0.6l-54,27c-2.5,1.3-4.4,3.5-5.3,6.2c-9.3,27.9,5.8,58.2,33.7,67.5    c5.6,1.8,11.2,2.7,16.8,2.7c22.3,0,43.2-14.1,50.6-36.5C379.8,276.8,364.7,246.5,336.8,237.2z M350.2,298.1    c-2.7,8.1-8.4,14.7-16,18.5c-7.6,3.8-16.3,4.4-24.4,1.7c-15.4-5.2-24.3-21-21.3-36.5l45.3-22.6C348,266.1,355.3,282.7,350.2,298.1    z" data-original="#000000" class="" data-old_color="#000000" fill="#FFFFFF"/>
	</g>
</g><g>
	<g>
		<path d="M309.3,383.9H202.6c-23.5,0-42.7,19-42.7,42.6s19.2,42.7,42.7,42.7h106.7c23.5,0,42.7-19,42.7-42.6    S332.8,383.9,309.3,383.9z M309.3,447.9H202.6c-11.8,0-21.3-9.7-21.3-21.4s9.5-21.3,21.3-21.3v0.1h106.7    c11.7,0,21.3,9.6,21.3,21.3S321.1,447.9,309.3,447.9z" data-original="#000000" class="" data-old_color="#000000" fill="#FFFFFF"/>
	</g>
</g><g>
	<g>
		<path d="M213.3,383.8c-5.9,0-10.7,4.8-10.7,10.7v64c0,5.9,4.8,10.7,10.7,10.7s10.6-4.7,10.7-10.7v-64    C224,388.6,219.2,383.8,213.3,383.8z" data-original="#000000" class="" data-old_color="#000000" fill="#FFFFFF"/>
	</g>
</g><g>
	<g>
		<path d="M255.9,383.8c-5.9,0-10.7,4.8-10.7,10.7v64c0,5.9,4.8,10.7,10.7,10.7c5.9,0,10.7-4.7,10.7-10.7v-64    C266.6,388.6,261.8,383.8,255.9,383.8z" data-original="#000000" class="" data-old_color="#000000" fill="#FFFFFF"/>
	</g>
</g><g>
	<g>
		<path d="M298.6,383.8c-5.9,0-10.7,4.8-10.7,10.7v64c0,5.9,4.8,10.7,10.7,10.7c5.9,0,10.7-4.7,10.7-10.7v-64    C309.3,388.6,304.5,383.8,298.6,383.8z" data-original="#000000" class="" data-old_color="#000000" fill="#FFFFFF"/>
	</g>
</g><g>
	<g>
		<path d="M255.9,21.2c-5.9,0-10.7,4.8-10.7,10.7v64c0,5.9,4.8,10.7,10.7,10.7c5.9,0,10.7-4.8,10.7-10.7v-64    C266.6,26,261.8,21.2,255.9,21.2z" data-original="#000000" class="" data-old_color="#000000" fill="#FFFFFF"/>
	</g>
</g><g>
	<g>
		<path d="M255.9,0c-11.7,0-21.3,9.5-21.3,21.3c0,11.7,9.5,21.3,21.3,21.3c11.8,0,21.4-9.6,21.3-21.3C277.2,9.6,267.7,0,255.9,0z" data-original="#000000" class="" data-old_color="#000000" fill="#FFFFFF"/>
	</g>
</g><g>
	<g>
		<circle cx="191.9" cy="287.9" r="10.7" data-original="#000000" class="" data-old_color="#000000" fill="#FFFFFF"/>
	</g>
</g><g>
	<g>
		<circle cx="319.9" cy="287.9" r="10.7" data-original="#000000" class="" data-old_color="#000000" fill="#FFFFFF"/>
	</g>
</g></g> </svg>
